<mxfile host="65bd71144e">
    <diagram id="QJjx0-fPxzvcmYibJWj1" name="Page-1">
        <mxGraphModel dx="924" dy="626" grid="0" gridSize="10" guides="1" tooltips="1" connect="1" arrows="1" fold="1" page="1" pageScale="1" pageWidth="827" pageHeight="583" background="none" math="0" shadow="0">
            <root>
                <mxCell id="0"/>
                <mxCell id="1" parent="0"/>
                <mxCell id="50" value="" style="shape=cube;whiteSpace=wrap;html=1;boundedLbl=1;backgroundOutline=1;darkOpacity=0.05;darkOpacity2=0.1;size=110;direction=east;flipH=1;fillColor=#f5f5f5;strokeColor=#666666;fontColor=#333333;" parent="1" vertex="1">
                    <mxGeometry x="30" y="80" width="120" height="490" as="geometry"/>
                </mxCell>
                <mxCell id="4f-DMQIj-ya-iA7LCkDa-1" value="" style="shape=cube;whiteSpace=wrap;html=1;boundedLbl=1;backgroundOutline=1;darkOpacity=0.05;darkOpacity2=0.1;size=110;direction=east;flipH=1;fillColor=#fff2cc;strokeColor=#d6b656;" parent="1" vertex="1">
                    <mxGeometry x="52" y="85" width="148" height="490" as="geometry"/>
                </mxCell>
                <mxCell id="4f-DMQIj-ya-iA7LCkDa-3" value="" style="shape=cube;whiteSpace=wrap;html=1;boundedLbl=1;backgroundOutline=1;darkOpacity=0.05;darkOpacity2=0.1;size=70;direction=east;flipH=1;fillColor=#dae8fc;strokeColor=#6c8ebf;" parent="1" vertex="1">
                    <mxGeometry x="101" y="175.84" width="109" height="310" as="geometry"/>
                </mxCell>
                <mxCell id="4f-DMQIj-ya-iA7LCkDa-4" value="" style="shape=cube;whiteSpace=wrap;html=1;boundedLbl=1;backgroundOutline=1;darkOpacity=0.05;darkOpacity2=0.1;size=70;direction=east;flipH=1;fillColor=#fff2cc;strokeColor=#d6b656;" parent="1" vertex="1">
                    <mxGeometry x="150" y="175.84" width="160" height="310" as="geometry"/>
                </mxCell>
                <mxCell id="4f-DMQIj-ya-iA7LCkDa-6" value="" style="shape=cube;whiteSpace=wrap;html=1;boundedLbl=1;backgroundOutline=1;darkOpacity=0.05;darkOpacity2=0.1;size=40;direction=east;flipH=1;fillColor=#dae8fc;strokeColor=#6c8ebf;" parent="1" vertex="1">
                    <mxGeometry x="251" y="268" width="129" height="133.75" as="geometry"/>
                </mxCell>
                <mxCell id="4f-DMQIj-ya-iA7LCkDa-7" value="" style="shape=cube;whiteSpace=wrap;html=1;boundedLbl=1;backgroundOutline=1;darkOpacity=0.05;darkOpacity2=0.1;size=40;direction=east;flipH=1;fillColor=#fff2cc;strokeColor=#d6b656;" parent="1" vertex="1">
                    <mxGeometry x="357" y="268" width="193" height="133.75" as="geometry"/>
                </mxCell>
                <mxCell id="4f-DMQIj-ya-iA7LCkDa-29" value="&lt;b&gt;&lt;font style=&quot;color: rgb(255, 255, 255);&quot;&gt;Input&lt;/font&gt;&lt;/b&gt;&lt;div&gt;&lt;b&gt;&lt;font style=&quot;color: rgb(255, 255, 255);&quot;&gt;(4, 256, 256)&lt;/font&gt;&lt;/b&gt;&lt;/div&gt;" style="text;html=1;strokeColor=none;fillColor=none;align=center;verticalAlign=middle;whiteSpace=wrap;rounded=0;fontColor=#FFFFFF;" parent="1" vertex="1">
                    <mxGeometry y="99.99999999999994" width="101" height="30" as="geometry"/>
                </mxCell>
                <mxCell id="4f-DMQIj-ya-iA7LCkDa-51" value="&lt;font style=&quot;color: rgb(255, 255, 255);&quot;&gt;pooling&lt;/font&gt;" style="text;html=1;strokeColor=none;fillColor=none;align=left;verticalAlign=middle;whiteSpace=wrap;rounded=0;fontStyle=1" parent="1" vertex="1">
                    <mxGeometry x="599" y="478.54" width="138" height="23.88" as="geometry"/>
                </mxCell>
                <mxCell id="4f-DMQIj-ya-iA7LCkDa-52" value="&lt;font style=&quot;color: rgb(255, 255, 255);&quot;&gt;convolution + ReLu&lt;/font&gt;" style="text;html=1;strokeColor=none;fillColor=none;align=left;verticalAlign=middle;whiteSpace=wrap;rounded=0;fontStyle=1" parent="1" vertex="1">
                    <mxGeometry x="599" y="440" width="138" height="23.88" as="geometry"/>
                </mxCell>
                <mxCell id="4f-DMQIj-ya-iA7LCkDa-53" value="&lt;font style=&quot;color: rgb(255, 255, 255);&quot;&gt;log softmax&lt;/font&gt;" style="text;html=1;strokeColor=none;fillColor=none;align=left;verticalAlign=middle;whiteSpace=wrap;rounded=0;fontStyle=1" parent="1" vertex="1">
                    <mxGeometry x="599" y="553.2199999999999" width="138" height="23.88" as="geometry"/>
                </mxCell>
                <mxCell id="57" value="" style="shape=cube;whiteSpace=wrap;html=1;boundedLbl=1;backgroundOutline=1;darkOpacity=0.05;darkOpacity2=0.1;size=7;direction=east;flipH=1;fillColor=#fff2cc;strokeColor=#d6b656;" parent="1" vertex="1">
                    <mxGeometry x="560" y="439.9999999999999" width="33" height="20.32" as="geometry"/>
                </mxCell>
                <mxCell id="61" value="" style="shape=cube;whiteSpace=wrap;html=1;boundedLbl=1;backgroundOutline=1;darkOpacity=0.05;darkOpacity2=0.1;size=3;direction=east;flipH=1;fillColor=#dae8fc;strokeColor=#6c8ebf;" parent="1" vertex="1">
                    <mxGeometry x="540" y="330.88" width="153" height="8" as="geometry"/>
                </mxCell>
                <mxCell id="64" value="&lt;font style=&quot;color: rgb(255, 255, 255);&quot;&gt;linear&lt;/font&gt;" style="text;html=1;strokeColor=none;fillColor=none;align=left;verticalAlign=middle;whiteSpace=wrap;rounded=0;fontStyle=1" parent="1" vertex="1">
                    <mxGeometry x="599" y="515.8199999999998" width="138" height="23.88" as="geometry"/>
                </mxCell>
                <mxCell id="73" value="&lt;div&gt;&lt;b&gt;&lt;font style=&quot;color: rgb(255, 255, 255);&quot;&gt;Conv1&lt;/font&gt;&lt;/b&gt;&lt;/div&gt;&lt;div&gt;&lt;b&gt;&lt;font style=&quot;color: rgb(255, 255, 255);&quot;&gt;(32, 256, 256)&lt;/font&gt;&lt;/b&gt;&lt;/div&gt;" style="text;html=1;strokeColor=none;fillColor=none;align=center;verticalAlign=middle;whiteSpace=wrap;rounded=0;" parent="1" vertex="1">
                    <mxGeometry x="20" y="583" width="101" height="30" as="geometry"/>
                </mxCell>
                <mxCell id="74" value="&lt;div&gt;&lt;b&gt;&lt;font style=&quot;color: rgb(255, 255, 255);&quot;&gt;Conv2&lt;/font&gt;&lt;/b&gt;&lt;/div&gt;&lt;div&gt;&lt;b&gt;&lt;font style=&quot;color: rgb(255, 255, 255);&quot;&gt;(64, 128, 128)&lt;/font&gt;&lt;/b&gt;&lt;/div&gt;" style="text;html=1;strokeColor=none;fillColor=none;align=center;verticalAlign=middle;whiteSpace=wrap;rounded=0;" parent="1" vertex="1">
                    <mxGeometry x="150" y="491.94" width="101" height="30" as="geometry"/>
                </mxCell>
                <mxCell id="75" value="&lt;div&gt;&lt;b&gt;&lt;font style=&quot;color: rgb(255, 255, 255);&quot;&gt;Conv3&lt;/font&gt;&lt;/b&gt;&lt;/div&gt;&lt;div&gt;&lt;b&gt;&lt;font style=&quot;color: rgb(255, 255, 255);&quot;&gt;(128, 64, 64)&lt;/font&gt;&lt;/b&gt;&lt;/div&gt;" style="text;html=1;strokeColor=none;fillColor=none;align=center;verticalAlign=middle;whiteSpace=wrap;rounded=0;" parent="1" vertex="1">
                    <mxGeometry x="390" y="410" width="101" height="30" as="geometry"/>
                </mxCell>
                <mxCell id="76" value="&lt;div&gt;&lt;b&gt;&lt;font style=&quot;color: rgb(255, 255, 255);&quot;&gt;MaxPool&lt;/font&gt;&lt;/b&gt;&lt;/div&gt;&lt;div&gt;&lt;b&gt;&lt;font style=&quot;color: rgb(255, 255, 255);&quot;&gt;(32, 128, 128)&lt;/font&gt;&lt;/b&gt;&lt;/div&gt;" style="text;html=1;strokeColor=none;fillColor=none;align=center;verticalAlign=middle;whiteSpace=wrap;rounded=0;" parent="1" vertex="1">
                    <mxGeometry x="183" y="145.83999999999995" width="101" height="30" as="geometry"/>
                </mxCell>
                <mxCell id="77" value="&lt;div&gt;&lt;b&gt;&lt;font style=&quot;color: rgb(255, 255, 255);&quot;&gt;MaxPool&lt;/font&gt;&lt;/b&gt;&lt;/div&gt;&lt;div&gt;&lt;b&gt;&lt;font style=&quot;color: rgb(255, 255, 255);&quot;&gt;(64, 64, 64)&lt;/font&gt;&lt;/b&gt;&lt;/div&gt;" style="text;html=1;strokeColor=none;fillColor=none;align=center;verticalAlign=middle;whiteSpace=wrap;rounded=0;" parent="1" vertex="1">
                    <mxGeometry x="291" y="229.99999999999994" width="101" height="30" as="geometry"/>
                </mxCell>
                <mxCell id="82" value="" style="shape=cube;whiteSpace=wrap;html=1;boundedLbl=1;backgroundOutline=1;darkOpacity=0.05;darkOpacity2=0.1;size=3;direction=east;flipH=1;fillColor=#d5e8d4;strokeColor=#82b366;" parent="1" vertex="1">
                    <mxGeometry x="733.5" y="330.89" width="60" height="8" as="geometry"/>
                </mxCell>
                <mxCell id="83" value="" style="shape=cube;whiteSpace=wrap;html=1;boundedLbl=1;backgroundOutline=1;darkOpacity=0.05;darkOpacity2=0.1;size=3;direction=east;flipH=1;fillColor=#e1d5e7;strokeColor=#9673a6;" parent="1" vertex="1">
                    <mxGeometry x="793.5" y="330.88" width="60" height="9.13" as="geometry"/>
                </mxCell>
                <mxCell id="85" value="&lt;div&gt;&lt;b style=&quot;background-color: transparent;&quot;&gt;&lt;font style=&quot;color: rgb(255, 255, 255);&quot;&gt;AdaptiveAvgPool&lt;/font&gt;&lt;/b&gt;&lt;/div&gt;&lt;div&gt;&lt;b style=&quot;background-color: transparent;&quot;&gt;&lt;font style=&quot;color: rgb(255, 255, 255);&quot;&gt;(1, 1, 128)&lt;/font&gt;&lt;/b&gt;&lt;/div&gt;" style="text;html=1;strokeColor=none;fillColor=none;align=center;verticalAlign=middle;whiteSpace=wrap;rounded=0;" parent="1" vertex="1">
                    <mxGeometry x="566" y="350" width="101" height="30" as="geometry"/>
                </mxCell>
                <mxCell id="86" value="&lt;div&gt;&lt;b style=&quot;background-color: transparent;&quot;&gt;&lt;font style=&quot;color: rgb(255, 255, 255);&quot;&gt;Linear&lt;/font&gt;&lt;/b&gt;&lt;/div&gt;&lt;div&gt;&lt;b style=&quot;background-color: transparent;&quot;&gt;&lt;font style=&quot;color: rgb(255, 255, 255);&quot;&gt;(1, 1, 10)&lt;/font&gt;&lt;/b&gt;&lt;/div&gt;" style="text;html=1;strokeColor=none;fillColor=none;align=center;verticalAlign=middle;whiteSpace=wrap;rounded=0;" parent="1" vertex="1">
                    <mxGeometry x="713" y="350" width="101" height="30" as="geometry"/>
                </mxCell>
                <mxCell id="88" value="&lt;div&gt;&lt;b style=&quot;background-color: transparent;&quot;&gt;&lt;font style=&quot;color: rgb(255, 255, 255);&quot;&gt;Log Softmax&lt;/font&gt;&lt;/b&gt;&lt;/div&gt;&lt;div&gt;&lt;b style=&quot;background-color: transparent;&quot;&gt;&lt;font style=&quot;color: rgb(255, 255, 255);&quot;&gt;(1, 1, 10)&lt;/font&gt;&lt;/b&gt;&lt;/div&gt;" style="text;html=1;strokeColor=none;fillColor=none;align=center;verticalAlign=middle;whiteSpace=wrap;rounded=0;" parent="1" vertex="1">
                    <mxGeometry x="780" y="350" width="101" height="30" as="geometry"/>
                </mxCell>
                <mxCell id="91" value="" style="shape=cube;whiteSpace=wrap;html=1;boundedLbl=1;backgroundOutline=1;darkOpacity=0.05;darkOpacity2=0.1;size=7;direction=east;flipH=1;fillColor=#dae8fc;strokeColor=#6c8ebf;" parent="1" vertex="1">
                    <mxGeometry x="560" y="480.3199999999999" width="33" height="20.32" as="geometry"/>
                </mxCell>
                <mxCell id="100" value="" style="edgeStyle=none;html=1;" parent="1" source="92" target="64" edge="1">
                    <mxGeometry relative="1" as="geometry"/>
                </mxCell>
                <mxCell id="92" value="" style="shape=cube;whiteSpace=wrap;html=1;boundedLbl=1;backgroundOutline=1;darkOpacity=0.05;darkOpacity2=0.1;size=7;direction=east;flipH=1;fillColor=#d5e8d4;strokeColor=#82b366;" parent="1" vertex="1">
                    <mxGeometry x="560" y="519.3799999999999" width="33" height="20.32" as="geometry"/>
                </mxCell>
                <mxCell id="93" value="" style="shape=cube;whiteSpace=wrap;html=1;boundedLbl=1;backgroundOutline=1;darkOpacity=0.05;darkOpacity2=0.1;size=7;direction=east;flipH=1;fillColor=#e1d5e7;strokeColor=#9673a6;" parent="1" vertex="1">
                    <mxGeometry x="560" y="554.9999999999999" width="33" height="20.32" as="geometry"/>
                </mxCell>
                <mxCell id="98" style="edgeStyle=none;html=1;exitX=0;exitY=0;exitDx=0;exitDy=5;exitPerimeter=0;entryX=0;entryY=0;entryDx=59.99999999999999;entryDy=5.5;entryPerimeter=0;strokeColor=#FFFFFF;" parent="1" source="61" target="82" edge="1">
                    <mxGeometry relative="1" as="geometry"/>
                </mxCell>
                <mxCell id="99" value="&lt;font style=&quot;color: rgb(255, 255, 255);&quot;&gt;Dropout = 0.3&lt;/font&gt;" style="text;html=1;strokeColor=none;fillColor=none;align=left;verticalAlign=middle;whiteSpace=wrap;rounded=0;fontStyle=1" parent="1" vertex="1">
                    <mxGeometry x="676" y="307" width="138" height="23.88" as="geometry"/>
                </mxCell>
            </root>
        </mxGraphModel>
    </diagram>
</mxfile>